# xmcd
#
# Track frame offsets: 
#        150
#        24256
#        50782
#        68885
#        85705
#        95648
#        122758
#        149579
#        176309
#        200576
#        224413
#        247325
#        280436
#        297177
#
# Disc length: 4406 seconds
#
# Revision: 6
# Processed by: cddbd v1.5.2PL0 Copyright (c) Steve Scherf et al.
# Submitted via: ExactAudioCopy v1.1
#
DISCID=e011340e
DTITLE=Various Artist - Crossroads revisited
DYEAR=2016
DGENRE=Blues
TTITLE0=Susan Tedeschi - The Derek Trucks Band - Little by little
TTITLE1=Robert Cray - Poor Johnny
TTITLE2=B. B. King - Robert Cray  - Jimmie Vaughan - Hubert Sumlin - Payi
TTITLE2=ng the cost to be the boss
TTITLE3=Sheryl Crow - Eric Clapton - Vince Gill - Albert Lee - Tulsa time
TTITLE4=Willie Nelson - Sheryl Crow - Vince Gill - Albert Lee - On the ro
TTITLE4=ad again
TTITLE5=Eric Clapton - Isn't it a pity
TTITLE6=John Mayer - Belief
TTITLE7=Los Lobos - Mas y mas
TTITLE8=Jeff Beck - Big block
TTITLE9=Steve Winwood - Eric Clapton - Presence of the Lord
TTITLE10=Eric Clapton - Cocaine
TTITLE11=ZZ Top - Waiting for the bus - Jesus just left Chicago
TTITLE12=Gary Clark junior - Don't owe you a thang
TTITLE13=Gary Clark junior - Bright lights
EXTD=YEAR: 2016
EXTT0=
EXTT1=
EXTT2=
EXTT3=
EXTT4=
EXTT5=
EXTT6=
EXTT7=
EXTT8=
EXTT9=
EXTT10=
EXTT11=
EXTT12=
EXTT13=
PLAYORDER=
